#!OML:ASF E:\pregnant2\Project 1\Capture day 1\Session 1\pregnant2.ASF
:FULLY-SPECIFIED
:DEGREES
2740
root -1.45094 17.2778 21.0645 23.7853 -0.038434 -5.09801
lowerback -16.3344 1.65862 -0.54598
upperback -13.4564 2.27149 0.0148429
thorax -5.30743 1.2106 0.575058
lowerneck -13.5906 -5.92927 -7.1707
upperneck 34.7753 -9.00215 5.94683
head 14.9876 -4.03206 2.19603
rclavicle -1.07344e-014 -3.02153e-014
rhumerus -117.54 31.6678 -146.063
rradius 86.2306
rwrist 36.3003
rhand -53.3913 -56.2216
rfingers 7.12502
rthumb -25.8405 -84.4862
lclavicle -1.07344e-014 -3.02153e-014
lhumerus -114.857 -37.5237 145.262
lradius 93.2779
lwrist -12.9287
lhand -43.892 33.5462
lfingers 7.12502
lthumb -16.7173 62.8464
rfemur -86.1107 -2.27718 11.768
rtibia 109.877
rfoot 40.9628 4.41959
rtoes 25.8253
lfemur -33.179 -1.11082 -26.2283
ltibia 26.2893
lfoot -14.0084 10.7597
ltoes 12.8884
2741
root -1.45517 17.2715 21.0672 23.7835 0.0175364 -5.08807
lowerback -16.3511 1.6571 -0.586922
upperback -13.4582 2.27439 -0.0037529
thorax -5.30173 1.21462 0.579038
lowerneck -13.5817 -5.96211 -7.20708
upperneck 34.7273 -9.04581 5.96948
head 14.9708 -4.05298 2.20337
rclavicle 1.68967e-015 7.95139e-015
rhumerus -117.535 31.661 -146.074
rradius 86.216
rwrist 36.2873
rhand -53.3866 -56.1782
rfingers 7.12502
rthumb -25.836 -84.4435
lclavicle 1.68967e-015 7.95139e-015
lhumerus -114.849 -37.5332 145.226
lradius 93.3088
lwrist -12.9272
lhand -43.93 33.5459
lfingers 7.12502
lthumb -16.7538 62.843
rfemur -86.0671 -2.23917 11.8351
rtibia 109.52
rfoot 40.7677 5.81835
rtoes 24.2033
lfemur -33.2853 -1.10076 -26.23
ltibia 26.5204
lfoot -14.1278 10.724
ltoes 12.8329
2742
root -1.45968 17.2639 21.0698 23.7818 0.0661116 -5.07766
lowerback -16.3681 1.6565 -0.628652
upperback -13.4596 2.27852 -0.0226508
thorax -5.29541 1.21929 0.5833
lowerneck -13.5749 -5.99156 -7.24404
upperneck 34.6778 -9.08468 5.99442
head 14.9535 -4.07159 2.21255
rclavicle 3.77691e-014 1.27222e-014
rhumerus -117.541 31.6564 -146.097
rradius 86.2007
rwrist 36.275
rhand -53.3847 -56.1741
rfingers 7.12502
rthumb -25.8342 -84.4396
lclavicle 3.77691e-014 1.27222e-014
lhumerus -114.845 -37.5428 145.195
lradius 93.3373
lwrist -12.9202
lhand -43.9639 33.5272
lfingers 7.12502
lthumb -16.7864 62.8215
rfemur -86.0064 -2.19369 11.8853
rtibia 109.14
rfoot 40.1605 7.2858
rtoes 22.3653
lfemur -33.4116 -1.08039 -26.2362
ltibia 26.7921
lfoot -14.2702 10.6871
ltoes 12.7816
2743
root -1.46457 17.2547 21.0723 23.7852 0.107341 -5.06582
lowerback -16.3856 1.6557 -0.673507
upperback -13.4631 2.28272 -0.0412794
thorax -5.2914 1.22423 0.589569
lowerneck -13.5691 -6.01927 -7.28364
upperneck 34.627 -9.12048 6.0207
head 14.9358 -4.08906 2.22324
rclavicle 1.88845e-015 1.90833e-014
rhumerus -117.548 31.6523 -146.118
rradius 86.1843
rwrist 36.2717
rhand -53.3815 -56.1858
rfingers 7.12502
rthumb -25.8311 -84.4518
lclavicle 1.88845e-015 1.90833e-014
lhumerus -114.845 -37.5491 145.167
lradius 93.3645
lwrist -12.9077
lhand -43.9898 33.4934
lfingers 7.12502
lthumb -16.8113 62.7857
rfemur -85.9388 -2.14073 11.917
rtibia 108.732
rfoot 39.186 8.8434
rtoes 20.4093
lfemur -33.5629 -1.05067 -26.2476
ltibia 27.101
lfoot -14.4292 10.6472
ltoes 12.726
2744
root -1.46971 17.2443 21.0747 23.7904 0.141174 -5.05249
lowerback -16.4017 1.65477 -0.72097
upperback -13.4675 2.28699 -0.0596518
thorax -5.28921 1.2294 0.59751
lowerneck -13.5633 -6.04465 -7.32602
upperneck 34.5746 -9.15254 6.04908
head 14.9174 -4.10505 2.23591
rclavicle 6.95746e-015 8.74653e-015
rhumerus -117.554 31.6493 -146.136
rradius 86.165
rwrist 36.2757
rhand -53.3745 -56.1926
rfingers 7.12502
rthumb -25.8244 -84.4595
lclavicle 6.95746e-015 8.74653e-015
lhumerus -114.849 -37.553 145.146
lradius 93.3882
lwrist -12.8921
lhand -44.0114 33.4513
lfingers 7.12502
lthumb -16.8322 62.7417
rfemur -85.864 -2.07946 11.9327
rtibia 108.294
rfoot 37.9075 10.5012
rtoes 18.384
lfemur -33.7309 -1.01312 -26.2636
ltibia 27.4384
lfoot -14.6031 10.6052
ltoes 12.6748
2745
root -1.47496 17.2333 21.0769 23.7985 0.170211 -5.03999
lowerback -16.4144 1.65324 -0.767531
upperback -13.4741 2.29034 -0.0768938
thorax -5.29128 1.23408 0.605879
lowerneck -13.5528 -6.06959 -7.37465
upperneck 34.5199 -9.18407 6.08233
head 14.8975 -4.12116 2.25187
rclavicle -2.98177e-015 1.59028e-015
rhumerus -117.554 31.6424 -146.146
rradius 86.1426
rwrist 36.2885
rhand -53.3629 -56.1589
rfingers 7.12502
rthumb -25.8133 -84.4274
lclavicle -2.98177e-015 1.59028e-015
lhumerus -114.855 -37.55 145.127
lradius 93.4095
lwrist -12.8724
lhand -44.0195 33.4078
lfingers 7.12502
lthumb -16.8399 62.6976
rfemur -85.7898 -2.01039 11.939
rtibia 107.822
rfoot 36.3669 12.1959
rtoes 16.5159
lfemur -33.9101 -0.974736 -26.2791
ltibia 27.7911
lfoot -14.7843 10.5654
ltoes 12.6311
2746
root -1.48023 17.2222 21.0789 23.8094 0.19278 -5.02764
lowerback -16.4224 1.65198 -0.81347
upperback -13.483 2.2939 -0.093824
thorax -5.29847 1.23885 0.614044
lowerneck -13.5353 -6.09537 -7.42768
upperneck 34.4615 -9.2158 6.11563
head 14.8747 -4.13816 2.26868
rclavicle -1.61016e-014 -1.59028e-015
rhumerus -117.551 31.6324 -146.153
rradius 86.1185
rwrist 36.3072
rhand -53.3432 -56.1136
rfingers 7.12502
rthumb -25.7945 -84.3849
lclavicle -1.61016e-014 -1.59028e-015
lhumerus -114.864 -37.5424 145.112
lradius 93.4282
lwrist -12.85
lhand -44.0269 33.3732
lfingers 7.12502
lthumb -16.8471 62.6623
rfemur -85.7278 -1.93246 11.9416
rtibia 107.314
rfoot 34.6872 13.8953
rtoes 14.7364
lfemur -34.0931 -0.941296 -26.2934
ltibia 28.1439
lfoot -14.9637 10.5366
ltoes 12.5873
